<?xml version="1.0" encoding="utf-8"?>
<svg id="master-artboard" viewBox="0 0 1400 980" version="1.1" xmlns="http://www.w3.org/2000/svg" x="0px" y="0px" style="enable-background:new 0 0 1400 980;" width="1400px" height="980px"><g transform="matrix(1.3498621748827049, 0, 0, 1.3498621748827049, 123.75733015739877, -0.000013766448319074698)"><title>treasure</title><g><path d="M 561.980011 672 A 277 54 0 0 1 284.980011 726 A 277 54 0 0 1 7.980011 672 A 277 54 0 0 1 284.980011 618 A 277 54 0 0 1 561.980011 672 Z" fill="#3f3d56" transform="matrix(1.0000000000000002, 0, 0, 1.0000000000000002, -1.1368683772161603e-13, 0)" style="fill: rgb(190, 100, 64);"/><path d="M378.31,266.18a4.51,4.51,0,0,1,.31-2.14c.81-1.44,2.93-1.05,4.53-.64,6.44,1.62,13.22.15,19.84.53s14.09,3.69,15.42,10.19a48.25,48.25,0,0,0,12.23-12.57c1.84-2.75,3.44-5.9,3.19-9.2-.36-4.76-4.35-8.32-8.05-11.34l-11-9a16.51,16.51,0,0,0-4.94-3.14c-2.54-.87-5.32-.46-8-.46-8,0-16.57-3.64-23.71,0-3,1.53-5.22,4.15-7.38,6.71l-9.84,11.65a6.13,6.13,0,0,0-1.57,2.67c-.28,1.42.45,2.82.7,4.25.47,2.6-.66,5.37.21,7.87,1.43,4.15,6.46,4.74,9.54,7.11,1.15.89,2.95,3.89,4.31,3.86C376.54,272.5,378.24,268.09,378.31,266.18Z" transform="matrix(1.0000000000000002, 0, 0, 1.0000000000000002, -173.11000061035162, -86.99999999999997)" fill="#3f3d56" style="fill: rgb(235, 123, 74);"/><path d="M379.93,294c-.11,3.24-2,6.12-3.82,8.81-2.43,3.58-5,7.3-8.84,9.3a84.94,84.94,0,0,0,62.78,6.62c3.37-1,7.35-3.08,7.15-6.59-4-1.09-8.14-2.22-11.54-4.63-4.06-2.88-6.74-7.36-8.47-12s-2.61-9.6-3.82-14.43a2.72,2.72,0,0,0-.62-1.34,2.76,2.76,0,0,0-1.9-.5L397.53,279c-5.47,0-11.41-.13-16.49,2.19C374.72,284.09,380.11,288.62,379.93,294Z" transform="matrix(1.0000000000000002, 0, 0, 1.0000000000000002, -173.11000061035162, -86.99999999999997)" fill="#ffc0c6"/><path d="M379.93,294c-.11,3.24-2,6.12-3.82,8.81-2.43,3.58-5,7.3-8.84,9.3a84.94,84.94,0,0,0,62.78,6.62c3.37-1,7.35-3.08,7.15-6.59-4-1.09-8.14-2.22-11.54-4.63-4.06-2.88-6.74-7.36-8.47-12s-2.61-9.6-3.82-14.43a2.72,2.72,0,0,0-.62-1.34,2.76,2.76,0,0,0-1.9-.5L397.53,279c-5.47,0-11.41-.13-16.49,2.19C374.72,284.09,380.11,288.62,379.93,294Z" transform="matrix(1.0000000000000002, 0, 0, 1.0000000000000002, -173.11000061035162, -86.99999999999997)" opacity="0.1"/><path d="M368.34,750.24c-3.28,5-7.57,9.23-11.17,14s-6.61,10.33-6.65,16.3a2.58,2.58,0,0,0,.69,2.1,2.7,2.7,0,0,0,1.37.43l13.9,1.78a23.29,23.29,0,0,0,6.4.22,22.7,22.7,0,0,0,6.56-2.39,9.05,9.05,0,0,0,3.94-3c.67-1.1.85-2.45,1.49-3.57,1.93-3.39,6.79-3.24,10.65-2.65,1.11-10.31-1.74-20.59-4.57-30.57a4,4,0,0,0-.77-1.68,4,4,0,0,0-1.81-1c-3.33-1.09-11.38-5.36-14.18-3.36C372.14,738.33,370,747.59,368.34,750.24Z" transform="matrix(1.0000000000000002, 0, 0, 1.0000000000000002, -173.11000061035162, -86.99999999999997)" fill="#575a88" style="fill: rgb(246, 171, 64);"/><path d="M435.36,770.57c2.67-1.25,5.52-2.86,8.4-2.2,4.06.91,5.87,5.71,9.32,8,2.12,1.43,4.74,1.85,7.27,2.18a169.42,169.42,0,0,0,23.5,1.39c2.51,0,5.67-.6,6.28-3s-1.7-4.31-3.75-5.56a110,110,0,0,0-13.88-7.21,27.83,27.83,0,0,1-6.62-3.52c-3.43-2.77-5.1-7.11-6.63-11.24-1.23-3.32-2.36-10.49-4.88-13-2.76-2.71-6.47-.91-9.93-.15-5.38,1.18-11.68,2-15.14,6.83C424.24,750.16,420.35,777.52,435.36,770.57Z" transform="matrix(1.0000000000000002, 0, 0, 1.0000000000000002, -173.11000061035162, -86.99999999999997)" fill="#575a88" style="fill: rgb(246, 171, 64);"/><path d="M355.85,451.46A101.94,101.94,0,0,0,348.39,487c-.24,9.11.74,18.19,1.73,27.25q2.37,22,4.76,44a124.13,124.13,0,0,0,2.87,18.11c1.73,6.65,4.54,13,6.55,19.54,6.22,20.38,4.45,42.36.34,63.27a31.61,31.61,0,0,0-.86,7c.12,3.53,1.48,6.89,2.36,10.31,5.38,20.85-7,44,1.08,64a3.17,3.17,0,0,0,1.27,1.75,3.22,3.22,0,0,0,2.52-.11A34.09,34.09,0,0,0,377.6,739a40.21,40.21,0,0,0,16.34,11.83c4.74-1.17,5.63-6.93,7.18-11.56A79,79,0,0,0,404,729.2a80.15,80.15,0,0,0,1.05-12.68l4.1-144.35-.3,44.05a52,52,0,0,0,.67,10.66c.6,2.93,1.7,5.74,2.33,8.67.89,4.19.78,8.53.74,12.82a376.79,376.79,0,0,0,6.95,75.82c1.6,8.18,3.52,16.44,7.61,23.69a2.61,2.61,0,0,0,1.49,1.46c.87.19,1.67-.5,2.33-1.11a25.49,25.49,0,0,1,29.27-3.18c-.88-4.24,3.16-9.17.27-12.39-.83-.93-2.07-1.38-3-2.19-1.84-1.57-2.28-4.21-2.54-6.62a153.34,153.34,0,0,1,0-32.27c1.41-13.41,4.58-26.93,2.24-40.2-1.7-9.63-6.28-19-5.37-28.69.6-6.5,3.62-12.49,5.7-18.68,9.08-27.06,0-57.22,6.57-85,1.51-6.38,3.79-13.28,1.05-19.23l4.17-1.27-8.66-19.77c-1.84-4.21-3.76-8.54-7-11.78-5.44-5.41-13.57-6.86-21.16-8l-61.74-9.63C365.3,448.44,357.92,446.38,355.85,451.46Z" transform="matrix(1.0000000000000002, 0, 0, 1.0000000000000002, -173.11000061035162, -86.99999999999997)" fill="#3c354c" style="fill: rgb(212, 125, 55);"/><path d="M 248.040001 180.429993 A 26.43 26.43 0 0 1 221.610001 206.859993 A 26.43 26.43 0 0 1 195.18 180.429993 A 26.43 26.43 0 0 1 221.610001 153.999992 A 26.43 26.43 0 0 1 248.040001 180.429993 Z" fill="#ffc0c6" transform="matrix(1.0000000000000002, 0, 0, 1.0000000000000002, -1.1368683772161603e-13, 0)"/><path d="M380.31,298.9a6.14,6.14,0,0,0-4.26-.75,7.28,7.28,0,0,0-2,1.09L361.55,308a19.33,19.33,0,0,0-4.73,4.14c-2.14,2.91-2.48,6.78-2.2,10.38.62,8.12,3.9,15.78,5.68,23.72s1.78,17-3.34,23.36a12.38,12.38,0,0,0-2.18,3.09,9,9,0,0,0-.41,3,81.82,81.82,0,0,0,.24,11.4c.56,4.89,2,9.64,2.78,14.49,1.37,8.26,1,16.73,2.06,25a4,4,0,0,0,4,4.34,117.77,117.77,0,0,0,18.67,1.23c7.23,0,14.45-.4,21.67-.78l32.86-1.73a3.24,3.24,0,0,0,3.65-3.35c2.88-13.82,5.78-27.89,4.42-41.93-.88-9.07-3.52-17.86-6-26.62-2-7.1-3.92-14.55-2.42-21.78,1-4.77,3.43-9.18,4.06-14a16.51,16.51,0,0,0-4.52-13.9c-3.68-3.53-9.05-4.87-12.72-8.41a28.93,28.93,0,0,0-3.28-3.18,4.1,4.1,0,0,0-4.31-.5,5.55,5.55,0,0,0-1.64,1.83c-3.2,4.86-8,12.87-14.75,11.61C391.84,308.1,386.74,302,380.31,298.9Z" transform="matrix(1.0000000000000002, 0, 0, 1.0000000000000002, -173.11000061035162, -86.99999999999997)" fill="#eb7b4a"/><path d="M446.35,477.58c-2.34,1.75-4.08,4.86-3,7.57a15.27,15.27,0,0,0,9.36-1.3c1.87-.91,4.2-2.19,5.82-.87a4.93,4.93,0,0,1,1.19,1.8,60.82,60.82,0,0,0,6.34,10.53c1.78-.84,3.65-1.76,4.72-3.41a9.87,9.87,0,0,0,1.23-3.65,97,97,0,0,0,1.39-9.73c.21-2.37.25-5-1.37-6.76C465.08,464.26,452.12,473.27,446.35,477.58Z" transform="matrix(1.0000000000000002, 0, 0, 1.0000000000000002, -173.11000061035162, -86.99999999999997)" fill="#ffc0c6"/><path d="M376.66,256.26a4.48,4.48,0,0,1,.31-2.13c.81-1.44,2.93-1,4.53-.65,6.44,1.63,13.22.16,19.84.54s14.09,3.69,15.42,10.19A48.41,48.41,0,0,0,429,251.64c1.84-2.75,3.44-5.9,3.19-9.2-.36-4.76-4.35-8.32-8.05-11.34l-11-9a16.48,16.48,0,0,0-4.94-3.13c-2.54-.87-5.32-.46-8-.46-8,0-16.57-3.64-23.71,0-3,1.54-5.22,4.16-7.39,6.72l-9.83,11.65a6.21,6.21,0,0,0-1.58,2.66c-.28,1.42.45,2.83.71,4.25.46,2.6-.66,5.38.2,7.88,1.43,4.15,6.47,4.73,9.55,7.11,1.15.89,2.94,3.89,4.31,3.85C374.89,262.59,376.59,258.18,376.66,256.26Z" transform="matrix(1.0000000000000002, 0, 0, 1.0000000000000002, -173.7766113281251, -86.333381652832)" fill="#3f3d56" style="fill: rgb(235, 123, 74);"/><path d="M441.93,309.87a20.5,20.5,0,0,1,16.24,3c7.56,5.18,10.67,14.64,13.3,23.42l5.89,19.69c2.58,8.63,5.18,17.34,5.78,26.33.55,8.17-.57,16.35-1.69,24.46-1.55,11.23,2.1,23.54,2.15,34.87,0,13-.08,26.79-6.7,38a6.34,6.34,0,0,0-4-4.27,18.65,18.65,0,0,0-5.95-1l-17.6-1.13a54.27,54.27,0,0,0,3.86-7.93c6.75-17.34,4.16-36.72,1.47-55.12a38,38,0,0,0-1-5.2,49.58,49.58,0,0,1-1.19-20.15,47,47,0,0,0,.31-9.18,10.26,10.26,0,0,0-.81-3.76,11.82,11.82,0,0,0-1.94-2.68l-3.56-4c-.29-12.1-2.19-24.29-4.07-36.25A81.41,81.41,0,0,1,441.93,309.87Z" transform="matrix(1.0000000000000002, 0, 0, 1.0000000000000002, -173.11000061035162, -86.99999999999997)" fill="#eb7b4a"/><path d="M407.35,363.3a84.94,84.94,0,0,1-31.84-53.93c-.58-3.79-2.09-8.74-5.92-8.61a7.55,7.55,0,0,0-3.26,1.14l-13.88,7.44a5.23,5.23,0,0,0-2.42,2c-.91,1.78.38,3.83,1.49,5.49,7.47,11.3,8,25.65,8.3,39.19.09,4,.12,8.21-1.81,11.71-1.57,2.83-4.3,4.91-5.74,7.82-1.35,2.73-1.41,5.89-1.45,8.94-.28,21.76-.56,43.55.58,65.29.17,3.28.43,6.72,2.18,9.5,1.63,2.57,4.32,4.23,6.92,5.8l21.05,12.72c4,2.43,8.16,4.9,12.79,5.68s9.92-.54,12.58-4.41c1.29-1.88,1.86-4.17,3.1-6.08s3.61-3.46,5.72-2.61c1.5.6,2.32,2.17,3,3.62,1.34,2.77,2.74,5.61,4.93,7.78s5.36,3.63,8.37,3c2.6-.57,4.63-2.54,6.5-4.42,5.78-5.79,11.62-11.66,15.87-18.67a4.5,4.5,0,0,0,.9-2.83,5.7,5.7,0,0,0-1.55-2.6c-2.66-3.26-3.71-7.53-4.5-11.67-7.91-41.6,3.26-84.84-2.89-126.74-.7-4.8-2.24-9.21-5.84-12.46s-8.08-5.32-12.49-7.34c-1.45-.66-3.11-1.34-4.59-.74-2.45,1-2.46,4.37-2.28,7a91.71,91.71,0,0,1-.8,16.13l-2.15,19.79a38.24,38.24,0,0,1-1.68,8.9A35.84,35.84,0,0,1,407.35,363.3Z" transform="matrix(1.0000000000000002, 0, 0, 1.0000000000000002, -173.11000061035162, -86.99999999999997)" fill="#575a88" style="fill: rgb(246, 171, 64);"/><path d="M284.74,206.07s-7.63,6.2-16.64-10.06-52.52-55.34-52.52-55.34-5.63-5.15,15.76-13.73S281.94,87,281.94,87s48.74,43.33,53.51,64.79-5.67,25.1-23.59,36.5S284.74,206.07,284.74,206.07Z" transform="matrix(1.0000000000000002, 0, 0, 1.0000000000000002, -173.11000061035162, -86.99999999999997)" fill="#3f3d56" style="fill: rgb(190, 100, 64);"/><path d="M424.43,413.59l-123-221.67,10.44-3.63L432.79,409a4.79,4.79,0,0,1-2,6.54h0A4.77,4.77,0,0,1,424.43,413.59Z" transform="matrix(1.0000000000000002, 0, 0, 1.0000000000000002, -173.11000061035162, -86.99999999999997)" fill="#656380" style="fill: rgb(235, 160, 73);"/><path d="M373.92,357c3.22-6.89-.08-14.84-2.28-22.12a74.74,74.74,0,0,1-3.11-17.8,13,13,0,0,1,.62-5.63,5,5,0,0,1,4.28-3.27,20.53,20.53,0,0,1,3.21,14.62,49.22,49.22,0,0,1,5.66-1.11A10.59,10.59,0,0,1,393.81,329c3.17,10.16,4.25,21-.17,30.5a58,58,0,0,1-4.89,8.05l-9.64,14.08c-.66,1-1.47,2-2.63,2.17s-2.37-.88-3.22-1.85c-2.93-3.31-8.13-8.13-7.56-12.69S372,361.05,373.92,357Z" transform="matrix(1.0000000000000002, 0, 0, 1.0000000000000002, -173.11000061035162, -86.99999999999997)" fill="#ffc0c6"/><path d="M351.64,314.53c-9.79-1.11-21,1.54-26.12,10-2.57,4.27-3.21,9.39-3.66,14.35-.63,6.95-1,13.92-1.35,20.88l-1.89,36.64c-.23,4.38-.45,8.77-.53,13.15a29.63,29.63,0,0,0,1.09,10.16c1.21,3.55,3.61,6.55,6,9.47s5.38,5.93,8.89,5.08a9.66,9.66,0,0,0,3.81-2.35l8-6.92c5.44-4.67,10.94-9.41,15.08-15.27,2-2.82,3.64-5.87,5.66-8.67,5.94-8.24,15.08-14.49,18.21-24.15-3-.16-7.36-1.15-8.74-3.81-.73-1.41-.83-3.09-1.64-4.44-1.23-2.06-4-3.18-4.41-5.54-7.86,6.33-14.44,13.68-20.72,21.57l2.55-9.91A6.3,6.3,0,0,1,353,372.2a11.33,11.33,0,0,1,3-1.89c3.11-1.88,4.29-5.77,4.92-9.35A65.43,65.43,0,0,0,351.64,314.53Z" transform="matrix(1.0000000000000002, 0, 0, 1.0000000000000002, -173.11000061035162, -86.99999999999997)" fill="#eb7b4a"/><path d="M 451.60797119140625 655.6670532226562 L 451.60797119140625 655.6670532226562" style="fill: rgb(190, 100, 64); fill-opacity: 1; stroke: rgb(0, 0, 0); stroke-opacity: 1; stroke-width: 0; paint-order: fill;"/></g><path d="M 224.05235290527344 149.42796325683594" style="fill: rgb(246, 171, 64); fill-opacity: 1; stroke: rgb(0, 0, 0); stroke-opacity: 1; stroke-width: 0; paint-order: fill;"/><path d="M 280.71484375 184.09207153320312" style="fill: rgb(235, 123, 74); fill-opacity: 1; stroke: rgb(0, 0, 0); stroke-opacity: 1; stroke-width: 0; paint-order: fill;" transform="matrix(1, 0, 0, 1, -0.6666175909820424, 0.666617590982022)"/><path d="M 210.72000122070312 454.73883056640625" style="fill: rgb(235, 123, 74); fill-opacity: 1; stroke: rgb(0, 0, 0); stroke-opacity: 1; stroke-width: 0; paint-order: fill;"/><path d="M 460.70159912109375 358.07928466796875" style="fill: rgb(212, 125, 55); fill-opacity: 1; stroke: rgb(0, 0, 0); stroke-opacity: 1; stroke-width: 0; paint-order: fill;"/><path d="M 198.05426025390625 681.3887939453125 L 198.05426025390625 681.3887939453125" style="fill: rgb(246, 171, 64); fill-opacity: 1; stroke: rgb(0, 0, 0); stroke-opacity: 1; stroke-width: 0; paint-order: fill;"/><path d="M 616.6901245117188 570.7302856445312" style="fill: rgb(246, 171, 64); fill-opacity: 1; stroke: rgb(0, 0, 0); stroke-opacity: 1; stroke-width: 0; paint-order: fill;"/></g></svg>